<?xml version="1.0" encoding="UTF-8"?>
<svg id="Layer_1" data-name="Layer 1" xmlns="http://www.w3.org/2000/svg" viewBox="0 0 1200 630">
  <defs>
    <style>
      .cls-1 {
        fill: #fafafa;
      }

      .cls-2 {
        fill: #936;
      }

      .cls-3 {
        fill: #1d1419;
      }
    </style>
  </defs>
  <rect class="cls-3" width="1200" height="630"/>
  <g id="Group_3" data-name="Group 3">
    <g id="Group_2" data-name="Group 2">
      <g id="Group_1" data-name="Group 1">
        <path id="Path_1" data-name="Path 1" class="cls-2" d="m435.2,397.06c-32.18-10.31-59.16-32.6-75.37-62.25-.58,1.04-.92,1.73-1.26,2.42-13.25,28.98-8.88,62.98,11.28,87.67.97,1.48,2.78,2.17,4.49,1.73,18.5-3.44,35.99-10.98,51.18-22.08,3.24-2.19,6.23-4.72,9.68-7.48Z"/>
        <path id="Path_2" data-name="Path 2" class="cls-2" d="m458.1,378.3c-19.58,27.45-48.94,46.35-82.04,52.82.26.42.57.81.92,1.15,23.5,22.16,57.77,28.55,87.67,16.34,1.47-.54,2.46-1.9,2.53-3.46,2.9-21.06.45-42.51-7.13-62.37-.57-1.53-1.22-3.02-1.95-4.48Z"/>
        <path id="Path_3" data-name="Path 3" class="cls-2" d="m380.32,355.86c8.65,9.72,18.74,18.07,29.92,24.74-.03-33.93,12.8-66.62,35.9-91.48-1.38-.23-2.19-.35-3.11-.46-31.3-3.39-61.81,11.29-78.7,37.86-1.45,1.79-1.54,4.32-.23,6.21,4.55,8.27,10,16.03,16.22,23.13Z"/>
        <path id="Path_4" data-name="Path 4" class="cls-2" d="m451.09,349.99c-.92,0-1.84.23-3.22.35,19.91,27.39,28.6,61.35,24.28,94.93,6.77-3.55,13.01-8.05,18.53-13.35,17.91-17.15,27.42-41.29,26.01-66.05.08-1.65-.89-3.17-2.42-3.8-19.64-9.48-41.42-13.64-63.17-12.08Z"/>
        <path id="Path_5" data-name="Path 5" class="cls-2" d="m454.28,290.73c-1.66-.54-3.48.07-4.49,1.49-12.59,13.3-22.16,29.16-28.08,46.49-1.38,4.14-2.53,8.4-3.8,13.12,32.04-10.74,66.99-8.72,97.58,5.64-.08-.7-.19-1.39-.35-2.07-5.78-31.67-29.61-56.99-60.87-64.67Z"/>
      </g>
      <path id="Path_6" data-name="Path 6" class="cls-1" d="m809.29,287.28c7.25-12.08,12.77-21.4,13.35-22.67.69,6.79.69,10.01,1.38,15.88,2.7,2.52,6.74,2.94,9.9,1.04-2.19-16.69-1.73-24.51-3.46-33.48-6.67-1.73-77.55-2.76-96.19-3.34-5.87-5.53-7.71-12.89-15.76-19.33-1.38.81-2.76,1.61-4.14,2.53,2.78,9.32,7.44,17.98,13.69,25.43,7.37,1.26,15.53.46,26.58,1.38l1.61,22.44c-18.81,1.89-36.59,9.48-50.98,21.75l-30.96-27.5c26.12-54.42,22.67-46.72,31.53-65.24,9.9-1.04,21.4,4.04,27.5-5.06,15.07-22.55-14.15-14.15-23.36-14.27-19.45.12-35.67-7.13-43.61,2.88-.46,1.15-2.19,4.14-.69,6.67,1.84,3.11,23.94,7.5,30.49,8.65l-14.25,29.32h-207.93l11.74-43.96c-5.87-1.73-6.34-2.76-11.85-1.61-8.74-6.79-26.01-16.69-33.71-22.78-2.76.23-2.42.92-6.1,1.73-.35,29.11,41.31,19.1,38.32,33.37,0,0-12.08,45.33-20.48,77.44-14.2-2.8-28.85-2.25-42.8,1.61l-23.82-19.79,69.5-2.42,1.49-11.85-9.55-19.22c-2.43.45-4.05,2.75-3.68,5.19,1.13,4.56,2.63,9.03,4.49,13.35,1.49,4.49,0,5.19,0,5.19-22.5-.64-45.02.59-67.32,3.68-1.7,1.35-2.97,3.15-3.68,5.19,0,0,5.98,11.74,14.15,27.96-2.07,1.15-4.26,2.31-6.21,3.56-44.08,27.95-57.5,86.13-30.13,130.56,27.5,44.41,88.49,52.35,125.54,30.61,44.88-26.24,61.56-86.41,34.06-130.83-11.83-19.32-30.28-33.67-51.91-40.37l5.77-21.98,122.65,99.63c-3.83,5.77-5.87,12.53-5.87,19.45-.01,10.28,4.64,20.02,12.65,26.47l-15.42,23.84c-2.74-.41-5.52-.53-8.28-.35-2.58,1.5-3.45,4.81-1.95,7.38.28.47.62.9,1.02,1.27,7.19,1.5,14.52,2.24,21.87,2.19,3.91.35,5.41-3.8,5.06-6.67-1.15-2.31-8.17-2.76-8.17-2.76,2.53-4.83,10.47-17.83,12.2-20.71h0c4.96,2.58,10.41,4.07,15.99,4.37,1.15.12,2.42,0,3.56,0h.12c.19-.05.38-.09.58-.12,1.56-.15,3.1-.42,4.61-.81,9.67-1.61,29.11-4.72,50.51-8.17,18.55,48.23,72.69,72.29,120.92,53.74,48.23-18.55,72.29-72.69,53.74-120.92-8.22-21.36-23.98-38.97-44.3-49.5v-.05Zm-391.34,64.55c.69-2.19,1.26-4.37,1.84-6.44.92,1.73,1.73,3.46,2.53,5.06-1.5.46-2.88.92-4.37,1.38Zm8.65-2.53l-5.06-9.9c.12-.23.12-.46.23-.69,3.65-10.69,8.68-20.87,14.96-30.26l5.98,5.06-8.4,34.06c-2.56.47-5.09,1.04-7.73,1.73h.02Zm-7.94-15.65l-19.22-37.74c5.08-2.35,10.41-4.12,15.88-5.29l17.83,14.96c-5.94,8.75-10.82,18.17-14.52,28.08h.02Zm20.46-28.53c2.66-3.71,5.55-7.24,8.65-10.58-1.96,7.71-3.34,13.12-3.68,14.73l-4.97-4.15Zm3.91-16.34c.92.12,1.73.23,3.11.46-3.72,4.14-7.22,8.48-10.48,13l-15.07-12.54c7.41-1.24,14.95-1.54,22.44-.9v-.02Zm-60.18-25.43l21.63,18.06c-3.5,1.16-6.92,2.54-10.24,4.14l-11.39-22.21Zm-18.53,63.28c7.97-12.04,18.75-21.95,31.41-28.88l20.94,41.53c-4.22,13.36-6.4,27.29-6.44,41.31-11.2-6.64-21.29-14.99-29.92-24.74-6.17-7.08-11.57-14.8-16.11-23.01-1.4-1.85-1.35-4.41.12-6.21Zm5.64,98.38c-20.21-24.67-24.58-58.69-11.28-87.67.35-.69.69-1.38,1.26-2.42,16.18,29.67,43.17,51.96,75.37,62.25-3.46,2.76-6.44,5.29-9.55,7.6-15.22,11.06-32.71,18.6-51.21,22.09-1.76.33-3.55-.39-4.6-1.85Zm97.35,20.25c-.03,1.57-1.04,2.95-2.53,3.46-29.9,12.22-64.18,5.83-87.67-16.34-.23-.23-.46-.58-.92-1.15,33.07-6.54,62.4-25.42,82.04-52.82.76,1.49,1.41,3.03,1.96,4.61,7.58,19.82,10.03,41.22,7.12,62.24h0Zm49.37-79.4c1.41,24.76-8.1,48.89-26.01,66.05-5.49,5.33-11.73,9.82-18.53,13.35,4.28-33.58-4.4-67.52-24.28-94.92,1.38-.12,2.31-.35,3.22-.35,21.75-1.57,43.53,2.59,63.17,12.05,1.52.65,2.48,2.17,2.42,3.82h0Zm-1.49-10.47c.12.46.12,1.04.35,2.07-22-10.28-46.41-14.28-70.53-11.54l14.03-53.67c30.15,10.1,48.79,31.15,56.15,63.15h0Zm332.31,1.49l-39.12,10.13-19.45-2.88,15.42-12.31,38.89-10.96c1.89,5.21,3.3,10.57,4.24,16.03h.02Zm-80.19,33.03l1.04,1.61-4.26,16.46-2.55-16.8.35-.35c2.41-.46,4.27-.8,5.42-.92Zm-1.38-41.53l.23.46-.12.23-.12-.69Zm1.38-1.84l-1.73-4.72-3.22-53.85c1.26-.12,2.53-.12,3.8-.12,4.2.02,8.39.33,12.54.92l-2.42,40.05-8.97,17.72Zm11.05-22.21l2.19-35.33c4.66.82,9.25,2.05,13.69,3.68l-15.88,31.65Zm17.6-30.96c.81.35,1.73.69,2.53,1.04l-20.48,35.67v-.69l17.95-36.02Zm-14.17,62.81l-1.84.46c-1.05-1.08-2.21-2.05-3.46-2.88l.12-1.96,13-10.81-7.82,15.19Zm1.38,1.61l16.22-4.61-13.23,10.58-1.84-.23c-.57-1.4-1.27-2.75-2.07-4.04l.92-1.7Zm-7.37-24.03h0l-.23.35.23-.35Zm-.69,10.24l-.46,6.92-1.49,1.26c-.4-.12-.78-.28-1.15-.46-.4-.2-.83-.36-1.26-.46.69-1.07,2.19-3.6,4.38-7.28v.02Zm-4.14,45.1c1.41-.36,2.76-.91,4.04-1.61l1.73,1.15,2.76,16.8-9.23-14.38.7-1.96Zm7.25-3.68c1.15-.92,2.19-1.96,3.11-3.11l2.07.35,9.44,14.15-14.15-9.44-.46-1.96Zm5.06-6.21c.67-1.28,1.17-2.63,1.49-4.04l2.07-.58,14.38,9.09-16.8-2.76-1.15-1.71Zm2.19-7.83v-1.15c-.02-1.08-.1-2.15-.23-3.22l1.49-1.15,16.69,2.42-16.22,4.14-1.72-1.03Zm56.96-32.22l-34.29,9.55,27.85-22.21c2.51,4.02,4.66,8.25,6.44,12.64v.02Zm-7.5-14.15l-31.62,25.18-18.99,5.29,9.09-17.6,31.07-25.78c3.93,3.92,7.44,8.24,10.47,12.89l-.02.02Zm-11.74-14.15l-27.39,22.67,16.34-31.53c3.97,2.58,7.67,5.54,11.07,8.84l-.02.02Zm-12.63-10.03l-18.64,35.76-15.2,12.57.58-8.86c6.67-11.05,17.03-28.31,26.24-43.61,2.41,1.38,4.83,2.65,7.03,4.14Zm10.58-45.8l-17.15,29.7c-11.98-5.34-24.95-8.09-38.07-8.07-1.49,0-2.99,0-4.49.12l-1.38-22.55c15.39-.1,61.08.81,61.08.81h0Zm-61.11,77.9l.46,1.26,1.04,14.62-2.19-1.96.69-13.92Zm-2.76-44.65l1.73,24.51-.46,10.58-12.31-33.03c3.61-1.04,7.31-1.73,11.05-2.06h0Zm-60.07,66.4l21.98,8.17-35.56,1.61c.23-3.52.69-7.01,1.38-10.47l12.2.69Zm-10.81-6.1c1.44-5.3,3.45-10.43,5.98-15.3l37.49,14.73,4.37,4.26-46.72-3.22-1.12-.46Zm17.6,6.44l35.44,2.19,4.61,4.49-19.67.92-20.38-7.6Zm30.49-5.29l7.6,2.99-4.83-.35-2.76-2.65Zm16.46,8.17c-.91,1.09-1.69,2.29-2.31,3.56l-1.96.12-4.26-4.26,8.52.58Zm-1.52-9.31l5.77,5.06-3.91-.23-1.86-4.83Zm-3.56,14.96l1.38,1.38c-.16.53-.27,1.06-.35,1.61l-10.7.46-7.22-2.67,16.89-.78Zm.92,10.24c.22,1.22.57,2.41,1.04,3.56l-1.26,1.49-16.69,1.04,11.85-5.87,5.06-.23Zm-1.84,7.13l-6.77,8.28-39.35,6.21,26.69-13.21,19.43-1.28Zm2.65-.23l1.96-.12c.79,1.25,1.72,2.41,2.76,3.46l-.58,2.07-2.42,1.26-8.4,1.38,6.67-8.06Zm4.49,11.62c2.53-.46,4.83-.81,6.92-1.15l-10.15,12.65,3.23-11.5Zm-7.83-101.51l14.04,37.49-.69,16.92-14.62-13-14.04-35.56c4.9-2.47,10.03-4.42,15.33-5.83l-.02-.02Zm-17.03,6.79l12.54,31.76-6.07-5.4-18.18-18.64c3.67-2.92,7.59-5.5,11.73-7.7l-.02-.02Zm-19.45,14.38l38.55,33.71,2.99,7.5h-.69l-17.6-6.92-28.74-28.08c1.72-2.17,3.56-4.24,5.53-6.19l-.03-.02Zm18.53,32.45l-33-12.98c2.22-4.13,4.8-8.06,7.71-11.74l25.29,24.71Zm-47.81-101.36l-10.7,22.32-26.24-22.32h36.94Zm-80.45,107.01l-127.03-102.67.92-4.26h156.72l34.75,30.38-32.91,69.85c-11.27-2.59-23.12-.14-32.44,6.7Zm44.41,54.31c7.09-6.65,11.4-15.73,12.08-25.43l18.18-1.04c.58,7.12,2.01,14.16,4.26,20.94l-34.52,5.53Zm.12-53.06l31.41,1.96c-.96,5.36-1.46,10.78-1.49,16.22l-18.41.69c-1.63-7.39-5.68-14.02-11.51-18.85v-.02Zm32.45-3.22l-35.76-2.53,31.5-66.03,28.54,25.08c-11.86,12.05-20.25,27.08-24.26,43.5l-.02-.02Zm8.65,18.18l40.37-1.84,7.13,2.65-47.52,1.84c-.12-.87-.12-1.75-.01-2.62l.02-.02Zm.12,11.05l53.06-2.99-11.85,5.87-40.5,2.53c-.27-1.81-.5-3.54-.73-5.38l.02-.02Zm1.04,7.37l35.67-2.31-28.1,13.95-4.37.69c-1.44-4-2.52-8.12-3.22-12.31l.02-.02Zm5.19,17.6c14.85-2.42,30.03-4.83,43.03-6.92l-.81.92-35.56,18.53c-2.57-3.98-4.81-8.16-6.7-12.5l.03-.02Zm7.71,14.15l31.3-16.34-22.44,27.27c-3.27-3.37-6.25-7.02-8.9-10.91l.04-.02Zm10.38,12.43l25.55-30.96,7.13-3.68c3.34-.58,6.44-1.04,9.32-1.49l-4.14,15.19-24.97,31.41c-4.61-3.09-8.94-6.58-12.95-10.42l.06-.05Zm14.38,11.39l21.98-27.62-9.44,34.06c-4.35-1.84-8.56-3.98-12.61-6.42l.07-.02Zm14.38,7.13l10.7-38.64,12.24-15.53,2.99,19.56-10.01,38.89c-5.46-.87-10.82-2.3-15.99-4.26l.07-.02Zm29.23,5.29c-3.77.02-7.54-.25-11.28-.81l8.86-34.29,5.29,34.98c-.98.1-1.96.15-2.94.13l.06-.02Zm4.72-.12l-5.98-39.7,4.95-19.22,10.7,16.69,6.67,39.58c-5.35,1.48-10.84,2.37-16.38,2.66l.04-.02Zm18.18-3.11l-5.94-34.84,18.99,29.8c-4.2,2.11-8.59,3.81-13.12,5.06l.06-.02Zm14.96-5.98l-21.7-33.81-3.22-19.56,16.57,10.96,22.21,33.48c-4.37,3.38-9.03,6.38-13.92,8.95l.07-.02Zm15.3-10.24l-19.65-29.43,29.46,19.45c-2.97,3.64-6.28,6.99-9.88,10.01l.07-.02Zm11.16-11.51l-33.48-22.09-10.96-16.46,19.56,3.22,33.83,21.52c-2.51,4.91-5.53,9.54-9.01,13.83l.06-.02Zm9.9-15.53l-29.8-18.99,34.87,5.87c-1.3,4.53-3.02,8.93-5.13,13.14l.07-.02Zm5.53-15.07l-39.65-6.54-16.69-10.58,18.87-4.95,40.05,5.87c-.35,5.48-1.25,10.92-2.66,16.22l.09-.02Zm-32.63-23.35l34.52-8.97c.51,3.78.78,7.58.81,11.39v2.77l-35.33-5.19Z"/>
    </g>
  </g>
</svg>
